<svg width="193" height="64" viewBox="0 0 193 64" fill="none" xmlns="http://www.w3.org/2000/svg">
<g clip-path="url(#clip0_2_248)">
<path d="M186.988 38.8053L192.342 42.3562C190.605 44.9024 186.448 49.2712 179.263 49.2712C170.339 49.2712 163.694 42.403 163.694 33.6659C163.694 24.3685 170.41 18.061 178.511 18.061C186.659 18.061 190.651 24.5084 191.943 27.9892L192.648 29.7648L171.655 38.4082C173.251 41.5387 175.741 43.1272 179.263 43.1272C182.785 43.1272 185.227 41.3984 186.988 38.8053ZM170.528 33.1758L184.546 27.382C183.771 25.4433 181.47 24.0652 178.722 24.0652C175.224 24.0652 170.363 27.1488 170.528 33.1758Z" fill="#FF302F"/>
<path d="M153.573 2.15223H160.336V47.846H153.573V2.15186V2.15223Z" fill="#20B15A"/>
<path d="M142.912 19.2755H149.441V47.0281C149.441 58.5447 142.607 63.287 134.529 63.287C126.921 63.287 122.342 58.1945 120.628 54.0597L126.616 51.5832C127.696 54.1295 130.302 57.1433 134.529 57.1433C139.719 57.1433 142.912 53.9427 142.912 47.9626V45.7201H142.678C141.128 47.5887 138.169 49.2706 134.412 49.2706C126.569 49.2706 119.383 42.4726 119.383 33.7126C119.383 24.9053 126.569 18.0376 134.412 18.0376C138.146 18.0376 141.128 19.6962 142.678 21.5183H142.912V19.2758V19.2755ZM143.382 33.7126C143.382 28.1993 139.695 24.1812 134.999 24.1812C130.255 24.1812 126.263 28.1993 126.263 33.7126C126.263 39.1553 130.255 43.1033 134.999 43.1033C139.696 43.127 143.382 39.1553 143.382 33.7126H143.382Z" fill="#3686F7"/>
<path d="M82.2572 33.5959C82.2572 42.5899 75.2127 49.2008 66.5711 49.2008C57.9298 49.2008 50.8849 42.5666 50.8849 33.5959C50.8849 24.5554 57.9298 17.9678 66.5711 17.9678C75.2127 17.9678 82.2572 24.5554 82.2572 33.5959ZM75.4005 33.5959C75.4005 27.9896 71.3143 24.1346 66.5711 24.1346C61.8279 24.1346 57.7417 27.9896 57.7417 33.5959C57.7417 39.1556 61.8279 43.0571 66.5711 43.0571C71.3147 43.0571 75.4005 39.1556 75.4005 33.5959Z" fill="#FF302F"/>
<path d="M116.518 33.6659C116.518 42.6599 109.473 49.2708 100.832 49.2708C92.1904 49.2708 85.1459 42.6595 85.1459 33.6659C85.1459 24.6254 92.1904 18.061 100.832 18.061C109.473 18.061 116.518 24.6022 116.518 33.6659ZM109.638 33.6659C109.638 28.0597 105.552 24.2047 100.808 24.2047C96.0651 24.2047 91.979 28.0597 91.979 33.6659C91.979 39.2257 96.0651 43.1272 100.808 43.1272C105.575 43.1272 109.638 39.2024 109.638 33.6659Z" fill="#FFBA40"/>
<path d="M25.1013 42.4262C15.262 42.4262 7.56012 34.5302 7.56012 24.7419C7.56012 14.954 15.262 7.05803 25.1013 7.05803C30.4084 7.05803 34.2827 9.13703 37.1475 11.8003L41.8678 7.1049C37.8758 3.29715 32.5453 0.399902 25.1013 0.399902C11.6225 0.400277 0.280396 11.3334 0.280396 24.7419C0.280396 38.1512 11.6225 49.0839 25.1013 49.0839C32.381 49.0839 37.8758 46.7012 42.1731 42.2627C46.5876 37.8707 47.9495 31.7034 47.9495 26.7043C47.9495 25.139 47.7618 23.5273 47.5503 22.3359H25.1013V28.8302H41.0927C40.6231 32.8952 39.3316 35.675 37.4295 37.5669C35.1282 39.8799 31.4887 42.4262 25.1013 42.4262Z" fill="#3686F7"/>
</g>
<defs>
<clipPath id="clip0_2_248">
<rect width="193" height="63" fill="white" transform="translate(0 0.303223)"/>
</clipPath>
</defs>
</svg>
